<svg xmlns="http://www.w3.org/2000/svg" xmlns:svg="http://www.w3.org/2000/svg" id="svg2" width="323.528" height="53.98mm" version="1.1" viewBox="0 0 303.307 191.268"><defs id="defs4"><clipPath id="clipPath4421" clipPathUnits="userSpaceOnUse"><rect style="fill:#000;fill-opacity:1;fill-rule:evenodd;stroke:none;stroke-width:1px;stroke-linecap:butt;stroke-linejoin:miter;stroke-opacity:1" id="rect4423" width="303.307" height="191.268" x="0" y="0" rx="11.25" ry="11.25"/></clipPath><filter style="color-interpolation-filters:sRGB" id="filter4461" width="1.075" height="1.133" x="-.038" y="-.067"><feGaussianBlur id="feGaussianBlur4463" stdDeviation="3.355"/></filter></defs><metadata id="metadata7"/><g id="layer2" style="display:inline"><g id="g4384" clip-path="url(#clipPath4421)" style="opacity:1"><g id="g4379"><path style="fill:#fff;fill-opacity:1;fill-rule:evenodd;stroke:none;stroke-width:1px;stroke-linecap:butt;stroke-linejoin:miter;stroke-opacity:1" id="path4377" d="m -6.75,-7.7322852 126.25,-0.25 199.5,104.2500002 -0.5,40.729555 -20.5,0 -310.75,-95.979555"/><path id="path4435" d="M 303.5,104.51771 C 243.21747,58.598341 172.97166,26.437796 98.75,-0.23228519 L 98.5,-15.482285 l 214.5,0.5 -1,120.499995 -9.25,-1" style="fill:#969696;fill-opacity:1;fill-rule:evenodd;stroke:none;stroke-width:1px;stroke-linecap:butt;stroke-linejoin:miter;stroke-opacity:1;filter:url(#filter4461)"/><path style="fill:#fdcd2f;fill-opacity:1;fill-rule:evenodd;stroke:none;stroke-width:1px;stroke-linecap:butt;stroke-linejoin:miter;stroke-opacity:1" id="path4313" d="M 303.5,104.51771 C 243.21747,58.598341 172.97166,26.437796 98.75,-0.23228519 L 98.5,-15.482285 l 214.5,0.5 -1,120.499995 -9.25,-1"/><path style="fill:#017fba;fill-opacity:1;fill-rule:evenodd;stroke:none;stroke-width:1px;stroke-linecap:butt;stroke-linejoin:miter;stroke-opacity:1" id="path4323" d="m -1,33.267715 c 107.09878,13.662881 209.54726,42.98993 304,99.249995 l 7.75,0 0,65.5 -316.25,0 -1.75,-163.749995"/></g><g id="g4366"><g id="g4362"><path style="opacity:1;fill:#fff;fill-opacity:1;fill-rule:evenodd;stroke:none;stroke-width:1px;stroke-linecap:butt;stroke-linejoin:miter;stroke-opacity:1" id="path4341" d="m 69.119687,52.250318 18.69414,38.917595 -2.653185,5.34749 5.855709,12.727927 28.131149,-56.993012 -12.1976,0 -12.727923,27.824855 -12.55114,-27.824855"/><path style="fill:#fff;fill-opacity:1;fill-rule:evenodd;stroke:none;stroke-width:1px;stroke-linecap:butt;stroke-linejoin:miter;stroke-opacity:1" id="path4345" d="m 80.101511,92.803096 -13.56761,0 -11.84404,-27.82486 -5.3033,10.6066 8.83884,17.21826 -12.72793,0 -12.90469,-27.82486 -12.551152,27.82486 -12.3743698,0 19.4454398,-40.729552 10.606602,0 6.54074,12.904692 4.94974,-12.904692 9.54595,0 21.38998,40.729552"/></g><g id="g4355"><path id="path4339" d="m 148.13887,96.267715 18.69414,38.917595 -13.08301,27.44458 12.75,0 31.66668,-66.362175 -12.1976,0 -12.72792,27.824855 -12.55114,-27.824855" style="fill:#fff;fill-opacity:1;fill-rule:evenodd;stroke:none;stroke-width:1px;stroke-linecap:butt;stroke-linejoin:miter;stroke-opacity:1"/><path id="path4343" d="m 47.066796,96.267715 13.567611,0 11.844038,27.824855 5.303301,-10.6066 -8.838835,-17.218255 12.727922,0 12.904699,27.824855 12.551148,-27.824855 12.37437,0 -19.44544,40.729555 -10.606602,0 -6.540738,-12.9047 -4.949747,12.9047 -9.545942,0 -21.38998,-40.729555" style="fill:#fff;fill-opacity:1;fill-rule:evenodd;stroke:none;stroke-width:1px;stroke-linecap:butt;stroke-linejoin:miter;stroke-opacity:1"/><g id="g4351"><path style="fill:#fff;fill-opacity:1;fill-rule:evenodd;stroke:none;stroke-width:1px;stroke-linecap:butt;stroke-linejoin:miter;stroke-opacity:1" id="path4347" d="m 109.248,136.99727 19.09188,-40.729555 10.6066,0 20.5061,40.729555 -13.43503,0 -12.37437,-26.87006 -12.72792,26.87006"/><path style="fill:#fff;fill-opacity:1;fill-rule:evenodd;stroke:none;stroke-width:1px;stroke-linecap:butt;stroke-linejoin:miter;stroke-opacity:1" id="path4349" d="m 140.27231,124.09257 c -5.56054,0.33482 -11.0268,1.84813 -16.35185,5.12652 l -0.7071,2.2981 c 6.31924,-1.67795 12.36882,-4.37232 20.15254,-0.53033"/></g></g></g><g transform="translate(0.705742,-0.187107)" style="display:inline" id="g4473"><text id="text4425" x="12.5" y="24.768" style="font-style:normal;font-weight:400;font-size:40px;line-height:125%;font-family:sans-serif;letter-spacing:0;word-spacing:0;fill:#000;fill-opacity:1;stroke:none;stroke-width:1px;stroke-linecap:butt;stroke-linejoin:miter;stroke-opacity:1" xml:space="preserve"><tspan style="font-style:normal;font-variant:normal;font-weight:600;font-stretch:normal;font-size:11.25px;font-family:'URW Gothic L';-inkscape-font-specification:'URW Gothic L Semi-Bold';letter-spacing:0" id="tspan4427" x="12.5" y="24.768"><tspan id="tspan4429" style="font-style:normal;font-variant:normal;font-weight:600;font-stretch:normal;font-size:11.25px;font-family:'URW Gothic L';-inkscape-font-specification:'URW Gothic L Semi-Bold';letter-spacing:0;fill:#017fba;fill-opacity:1">Transport</tspan><tspan id="tspan4433" style="font-style:normal;font-variant:normal;font-weight:600;font-stretch:normal;font-size:11.25px;font-family:'URW Gothic L';-inkscape-font-specification:'URW Gothic L Semi-Bold';letter-spacing:0;fill:#fdcd2f;fill-opacity:1">for</tspan><tspan id="tspan4431" style="font-style:normal;font-variant:normal;font-weight:600;font-stretch:normal;font-size:11.25px;font-family:'URW Gothic L';-inkscape-font-specification:'URW Gothic L Semi-Bold';letter-spacing:0;fill:#017fba;fill-opacity:1">Canberra</tspan></tspan></text><text id="text4469" x="233.5" y="21.768" style="font-style:normal;font-weight:400;font-size:40px;line-height:125%;font-family:sans-serif;letter-spacing:0;word-spacing:0;fill:#000;fill-opacity:1;stroke:none;stroke-width:1px;stroke-linecap:butt;stroke-linejoin:miter;stroke-opacity:1" xml:space="preserve"><tspan style="font-style:normal;font-variant:normal;font-weight:400;font-stretch:normal;font-size:10px;font-family:Roboto;-inkscape-font-specification:Roboto" id="tspan4471" x="233.5" y="21.768">0000 0000 0</tspan></text></g></g></g></svg>