<svg xmlns="http://www.w3.org/2000/svg" xmlns:svg="http://www.w3.org/2000/svg" xmlns:xlink="http://www.w3.org/1999/xlink" id="svg2" width="323.528" height="53.98mm" version="1.1" viewBox="0 0 303.307 191.268"><defs id="defs4"><linearGradient id="linearGradient4619"><stop style="stop-color:#ef9191;stop-opacity:1" id="stop4615" offset="0"/><stop id="stop4623" offset=".5" style="stop-color:#efef91;stop-opacity:1"/><stop style="stop-color:#9191ef;stop-opacity:1" id="stop4617" offset="1"/></linearGradient><linearGradient id="linearGradient4621" x1="32.812" x2="70.312" y1="989.081" y2="989.081" gradientUnits="userSpaceOnUse" xlink:href="#linearGradient4619"/><linearGradient id="linearGradient4631" x1="65.625" x2="93.75" y1="970.331" y2="970.331" gradientUnits="userSpaceOnUse" xlink:href="#linearGradient4619"/><linearGradient id="linearGradient4639" x1="127.644" x2="166.289" y1="976.402" y2="976.402" gradientUnits="userSpaceOnUse" xlink:href="#linearGradient4619"/><linearGradient id="linearGradient4647" x1="254.751" x2="279.189" y1="982.256" y2="982.256" gradientUnits="userSpaceOnUse" xlink:href="#linearGradient4619"/><linearGradient id="linearGradient4649" x1="229.292" x2="252.951" y1="976.536" y2="976.536" gradientUnits="userSpaceOnUse" xlink:href="#linearGradient4619"/><linearGradient id="linearGradient4651" x1="201.013" x2="224.162" y1="976.402" y2="976.402" gradientUnits="userSpaceOnUse" xlink:href="#linearGradient4619"/><linearGradient id="linearGradient4653" x1="171.606" x2="195.883" y1="976.549" y2="976.549" gradientUnits="userSpaceOnUse" xlink:href="#linearGradient4619"/></defs><metadata id="metadata7"/><g id="layer1" transform="translate(0,-861.09448)"><rect style="fill:#1b3389;fill-opacity:1;fill-rule:evenodd;stroke:none;stroke-width:1px;stroke-linecap:butt;stroke-linejoin:miter;stroke-opacity:1" id="rect3368" width="303.307" height="191.268" x="0" y="861.094" rx="11.25" ry="11.25"/><g id="g4594" transform="matrix(0.71818917,0,0,0.71818917,42.982,274.99646)" style="fill:#ff19ff;fill-opacity:1;stroke:none;stroke-opacity:1"><g aria-label="money" style="font-style:normal;font-variant:normal;font-weight:700;font-stretch:normal;font-size:19.10983658px;line-height:1.25;font-family:Eurostile;-inkscape-font-specification:'Eurostile Bold';letter-spacing:0;word-spacing:0;fill:#ff19ff;fill-opacity:1;stroke:none;stroke-width:.2985912;stroke-opacity:1" id="text823"><path d="m 127.64359,963.71228 h 6.1499 l -0.16114,3.94775 0.13428,0.0269 q 1.87988,-4.27002 7.8418,-4.27002 6.95557,0 7.73437,4.75342 h 0.10743 q 1.79931,-4.75342 7.92236,-4.75342 8.91601,0 8.91601,8.96973 v 16.99951 h -6.1499 v -15.65674 q 0,-5.45166 -4.48486,-5.45166 -5.61279,0 -5.61279,6.09619 v 15.01221 h -6.14991 v -15.89844 q 0,-3.1958 -0.85937,-4.18945 -0.83252,-1.02051 -3.57178,-1.02051 -5.6665,0 -5.6665,6.23047 v 14.87793 h -6.1499 z" style="font-size:55px;fill:url(#linearGradient4639);fill-opacity:1;stroke-width:.98673362;stroke:#fff;stroke-opacity:.75294119;stroke-miterlimit:4;stroke-dasharray:none" id="path4596"/><path d="m 183.82523,963.41687 q 7.43896,0 9.74853,2.39014 2.30957,2.36328 2.30957,10.01709 0,8.54004 -2.25586,11.19873 -2.25586,2.65869 -9.50683,2.65869 -7.86866,0 -10.20508,-2.4707 -2.30957,-2.47071 -2.30957,-10.87647 0,-8.0835 2.28271,-10.50049 2.28272,-2.41699 9.93653,-2.41699 z m -0.0537,4.86084 q -3.84033,0 -4.88769,1.39648 -1.04736,1.36963 -1.04736,6.44532 0,5.80078 0.99365,7.25097 0.99365,1.4502 4.96826,1.4502 3.84033,0 4.83398,-1.53076 1.02051,-1.53076 1.02051,-7.3584 0,-4.91455 -1.04736,-6.28418 -1.04736,-1.36963 -4.83399,-1.36963 z" style="font-size:55px;fill:url(#linearGradient4653);fill-opacity:1;stroke-width:.98673362;stroke:#fff;stroke-opacity:.75294119;stroke-miterlimit:4;stroke-dasharray:none" id="path4598"/><path d="m 201.01273,963.71228 h 6.09619 l -0.2417,4.32373 0.13428,0.0269 q 1.79931,-4.646 8.05664,-4.646 9.104,0 9.104,8.48633 v 17.48291 h -6.1499 v -15.46875 -0.9668 l -0.13428,-1.79931 q -0.42969,-2.87354 -4.51172,-2.87354 -6.20361,0 -6.20361,5.88135 v 15.22705 h -6.1499 z" style="font-size:55px;fill:url(#linearGradient4651);fill-opacity:1;stroke-width:.98673362;stroke:#fff;stroke-opacity:.75294119;stroke-miterlimit:4;stroke-dasharray:none" id="path4600"/><path d="m 246.77444,981.16833 h 6.17676 v 0.99366 q 0,7.51953 -11.27929,7.51953 -7.65381,0 -10.01709,-2.60498 -2.36329,-2.60498 -2.36329,-11.0376 0,-7.49268 2.47071,-10.0708 2.4707,-2.57813 9.64111,-2.57813 6.875,0 9.21143,2.52442 2.33642,2.49756 2.33642,9.85596 v 1.87988 h -17.37549 q -0.0537,0.85937 -0.0537,1.12793 0,3.78662 1.15479,5.04883 1.18164,1.2622 4.67285,1.2622 3.38379,0 4.4043,-0.72509 1.0205,-0.75196 1.0205,-3.19581 z m 0.0537,-7.27783 -0.0269,-1.0205 q 0,-3.06153 -1.07422,-3.97461 -1.04736,-0.91309 -4.59228,-0.91309 -3.4375,0 -4.48487,1.10107 -1.0205,1.10108 -1.0205,4.80713 z" style="font-size:55px;fill:url(#linearGradient4649);fill-opacity:1;stroke-width:.98673362;stroke:#fff;stroke-opacity:.75294119;stroke-miterlimit:4;stroke-dasharray:none" id="path4602"/><path d="m 279.189,963.71228 -6.74073,27.28516 q -1.42334,5.80078 -3.54492,7.78808 -2.09473,2.01418 -6.74072,2.01418 -1.04737,0 -2.17529,-0.1074 v -4.53861 q 0.80566,0.0537 1.34277,0.0537 3.9209,0 4.96826,-6.82129 h -3.14209 l -8.40576,-25.67383 h 6.60644 l 3.22266,10.87647 1.61133,5.45166 q 0.13428,0.5371 0.75195,2.73925 l 0.77881,2.71241 h 0.13428 l 0.56396,-2.71241 q 0.42969,-2.09472 0.56397,-2.73925 l 1.2622,-5.45166 2.47071,-10.87647 z" style="font-size:55px;fill:url(#linearGradient4647);fill-opacity:1;stroke-width:.98673362;stroke:#fff;stroke-opacity:.75294119;stroke-miterlimit:4;stroke-dasharray:none" id="path4604"/></g><g id="g4587" transform="matrix(2,0,0,2,-42.1875,-1028.9247)" style="fill:#ff19ff;fill-opacity:1;stroke:none;stroke-opacity:1"><path style="fill:url(#linearGradient4621);fill-opacity:1;stroke:#fff;stroke-width:.49336681;stroke-linecap:butt;stroke-linejoin:miter;stroke-opacity:.75294119;stroke-miterlimit:4;stroke-dasharray:none" id="path4581" d="m 37.499999,977.3622 h 14.0625 c 2.34375,0 4.6875,2.34375 4.6875,4.6875 v 28.125 c 0,2.3437 2.34375,4.6875 4.6875,4.6875 h 4.6875 c 2.34375,0 4.6875,-2.3438 4.6875,-4.6875 v -32.8125 c 0,-7.03125 -7.03125,-14.0625 -14.0625,-14.0625 h -18.75 c -2.343749,0 -4.687499,2.34375 -4.6875,4.6875 v 4.6875 c 10e-7,2.34375 2.343751,4.6875 4.6875,4.6875 z"/><path style="fill:url(#linearGradient4631);fill-opacity:1;stroke:#fff;stroke-width:.49336681;stroke-linecap:butt;stroke-linejoin:miter;stroke-opacity:.75294119;stroke-miterlimit:4;stroke-dasharray:none" id="path4583" d="m 74.999998,977.3622 c 10e-7,-4.6875 -2.343749,-9.375 -9.374999,-14.0625 h 23.437499 c 2.34375,0 4.6875,2.34375 4.6875,4.6875 v 4.6875 c 0,2.34375 -2.34375,4.6875 -4.6875,4.6875 z"/></g></g></g></svg>