<svg xmlns="http://www.w3.org/2000/svg" xmlns:svg="http://www.w3.org/2000/svg" id="svg877" width="405.333" height="256" enable-background="new" version="1.1" viewBox="0 0 405.333 256"><metadata id="metadata883"/><g id="layer2" style="display:inline"><rect style="opacity:1;fill:#2a2d6c;fill-opacity:1;stroke:none;stroke-width:3;stroke-linecap:round;stroke-linejoin:round;stroke-miterlimit:4;stroke-dasharray:none;stroke-opacity:1" id="rect5330" width="405.333" height="256" x="0" y="0" rx="15" ry="15"/></g><g id="layer3" style="display:inline;opacity:1"><g id="g5439" style="opacity:1"><path id="l1t" d="m 24.5,35 -3,19.5 h 30 L 39.5,122 H 65 L 77,54.5 h 30 L 110,35 Z" style="fill:#fded06;fill-opacity:1;stroke:none"/><path id="l1h" d="M 317,36.5 302,122 h 22.5 L 332,81.5 h 25.5 L 353,110 c -1.5,7.5 3,12 7.5,12 H 371 l 9,-49.5 c 1.5,-6 -4.5,-12 -7.5,-12 H 347 c -4.5,0 -10.5,4.5 -12,10.5 l 6,-34.5 z" style="fill:#fded06;fill-opacity:1;stroke:none"/><path id="l1u" d="m 165.5,60.5 -9,49.5 c -1.5,7.5 4.5,12 9,12 l 25.5,0 c 4.5,0 12,-4.5 15,-10.5 3,6 4.5,10.5 7.5,10.5 H 227 L 237.5,60.5 H 215 l -6,40.5 -28.5,0 7.5,-40.5 z" style="fill:#fded06;fill-opacity:1;stroke:none"/><path id="l1c" d="m 257,60.5 c -4.5,0 -12,4.5 -13.5,12 L 236,110 c -1.5,7.5 4.5,12 9,12 h 43.5 l 4.5,-21 h -31.5 l 3,-19.5 h 33 l 3,-21 z" style="fill:#fded06;fill-opacity:1;stroke:none"/><path id="l1o" d="m 99.5,60.5 c -4.5,-10e-7 -10.5,4.5 -12,12 l -6,37.5 c -1.5,7.5 4.5,12 9,12 h 45 c 4.5,0 12,-4.5 13.5,-12 l 6,-37.5 c 1.5,-7.5 -3,-12.000001 -7.5,-12.000001 z m 9,20.999999 H 131 L 128,101 h -22.5 z" style="fill:#fded06;fill-opacity:1;stroke:none"/><path id="l2o" d="m 296,132.5 c -6,0 -13.5,7.5 -15,15 L 270.5,200 c -1.5,7.5 6,15 10.5,15 h 61.5 c 7.5,0 15,-7.5 16.5,-15 l 9,-52.5 c 1.5,-7.5 -6,-15 -10.5,-15 z m 9,22.5 h 37.5 l -7.5,37.5 h -37.5 z" style="fill:#fded06;fill-opacity:1;stroke:none"/><path id="l2g" d="m 195.5,132.5 c -4.5,0 -13.5,4.5 -15,12.47783 L 170,200 c -1.5,7.5 4.99681,15 10.5,15 h 60.49812 C 245,215 257,207.5 258.5,200 l 4.5,-31.5 h -24 l -4.5,24 h -39 L 203,155 h 61.5 l 4.5,-22.5 z" style="fill:#fded06;fill-opacity:1;stroke:none"/><path id="l2quot" d="m 80,132.5 -4.5,25.5 18,-25.5 z" style="fill:#fff;fill-opacity:1;stroke:none"/><path id="l2n" d="M 98.623413,132.5 87.5,194 H 113 l 7.5,-39 h 27 l -6,28.5 c -1.5,7.5 3,10.5 7.5,10.5 h 13.5 l 9,-46.5 c 1.5,-7.5 -4.5,-15 -9,-15 h -27 c -4.5,0 -13.5,6 -13.5,10.5 l 1.5,-10.5 z" style="fill:#fff;fill-opacity:1;stroke:none"/></g></g></svg>